<svg xmlns="http://www.w3.org/2000/svg" viewBox="0 0 1440 320"><path fill="#F67272" fill-opacity="1" d="M0,128L30,133.3C60,139,120,149,180,170.7C240,192,300,224,360,208C420,192,480,128,540,96C600,64,660,64,720,80C780,96,840,128,900,117.3C960,107,1020,53,1080,48C1140,43,1200,85,1260,106.7C1320,128,1380,128,1410,128L1440,128L1440,0L1410,0C1380,0,1320,0,1260,0C1200,0,1140,0,1080,0C1020,0,960,0,900,0C840,0,780,0,720,0C660,0,600,0,540,0C480,0,420,0,360,0C300,0,240,0,180,0C120,0,60,0,30,0L0,0Z"></path></svg>